<?xml version="1.0" standalone="no"?>
<!DOCTYPE svg PUBLIC "-//W3C//DTD SVG 20010904//EN"
 "http://www.w3.org/TR/2001/REC-SVG-20010904/DTD/svg10.dtd">
<svg version="1.0" xmlns="http://www.w3.org/2000/svg"
 width="512.000000pt" height="512.000000pt" viewBox="0 0 512.000000 512.000000"
 preserveAspectRatio="xMidYMid meet">

<g transform="translate(0.000000,512.000000) scale(0.100000,-0.100000)"
fill="#000000" stroke="none">
<path d="M2421 3535 c-394 -86 -680 -360 -783 -750 -20 -75 -22 -110 -25 -567
-3 -329 -1 -488 6 -488 7 0 11 167 13 498 3 476 4 500 25 575 114 402 445 682
862 729 180 20 375 -12 538 -87 287 -132 494 -392 559 -698 11 -52 14 -163 15
-470 1 -221 5 -436 9 -477 4 -41 7 148 6 420 -2 550 -2 545 -77 725 -120 289
-405 520 -723 586 -110 23 -328 25 -425 4z"/>
<path d="M2498 3489 c-386 -56 -697 -327 -800 -695 -21 -76 -22 -96 -23 -574
l-2 -495 7 475 c5 387 9 488 23 545 80 347 339 614 682 705 99 27 283 37 383
21 380 -59 686 -329 783 -691 21 -81 23 -108 29 -570 l6 -485 2 460 c1 276 -2
486 -8 525 -22 139 -88 289 -180 412 -198 263 -573 415 -902 367z"/>
<path d="M3986 3288 c3 -5 10 -6 15 -3 13 9 11 12 -6 12 -8 0 -12 -4 -9 -9z"/>
<path d="M4025 3256 c10 -14 19 -26 22 -26 7 0 -17 39 -28 46 -6 3 -3 -5 6
-20z"/>
<path d="M2334 3234 c-52 -25 -67 -63 -59 -150 7 -69 10 -77 34 -87 69 -29 74
-58 41 -217 -32 -152 -50 -200 -91 -239 -42 -42 -56 -76 -39 -96 11 -13 70
-15 376 -15 320 0 364 2 379 16 9 9 14 21 12 27 -2 8 -30 28 -44 33 -2 0 19
23 45 50 53 55 70 100 81 211 l7 73 -101 0 -100 0 -13 29 c-16 37 1 71 36 71
46 0 62 17 62 65 0 41 2 45 25 45 23 0 25 4 25 45 0 39 -3 45 -21 45 -13 0
-39 19 -63 44 -26 28 -55 48 -81 55 -23 6 -131 11 -260 11 -176 0 -226 -4
-251 -16z m536 -20 c36 -21 80 -76 80 -100 0 -12 -60 -14 -335 -14 l-335 0 0
25 c0 51 30 87 90 109 8 3 116 4 240 3 207 -2 228 -4 260 -23z m130 -113 c0
-16 -6 -31 -14 -34 -19 -8 -26 1 -26 35 0 21 5 28 20 28 15 0 20 -7 20 -29z
m-50 -31 c0 -20 -7 -20 -330 -20 -323 0 -330 0 -330 20 0 20 7 20 330 20 323
0 330 0 330 -20z m-10 -44 c0 -12 -34 -15 -201 -18 -196 -3 -202 -4 -217 -25
-12 -20 -23 -23 -77 -23 -44 0 -66 5 -75 16 -8 8 -28 21 -47 29 -73 31 -38 35
292 35 276 0 325 -2 325 -14z m-230 -55 c0 -21 19 -31 60 -31 16 0 30 -7 34
-16 9 -24 7 -54 -4 -54 -5 0 -10 -7 -10 -15 0 -12 -18 -15 -101 -15 l-102 0 6
-77 c8 -110 24 -151 80 -206 36 -37 42 -47 25 -41 -70 21 -110 61 -150 150
-17 39 -23 73 -26 165 -6 157 -5 159 103 159 77 0 85 -2 85 -19z m234 5 c-7
-19 -37 -26 -121 -26 -80 0 -103 6 -103 26 0 11 23 14 115 14 94 0 113 -2 109
-14z m-434 -129 c0 -164 44 -269 135 -323 43 -25 58 -28 183 -33 120 -5 137
-8 140 -23 3 -17 -20 -18 -367 -18 l-371 0 0 21 c0 12 18 39 40 61 47 48 67
104 101 291 l23 127 58 0 58 0 0 -103z m280 -21 c0 -2 -9 -23 -20 -47 -21 -48
-26 -109 -10 -140 14 -25 64 -50 87 -42 32 11 63 46 69 78 4 23 -2 51 -19 94
l-25 62 92 -3 91 -3 -2 -60 c-3 -85 -20 -138 -60 -185 -49 -57 -80 -70 -163
-70 -79 0 -109 12 -157 62 -40 41 -60 95 -69 187 l-7 71 97 0 c53 0 96 -2 96
-4z m65 -118 c0 -54 3 -81 9 -71 9 16 3 143 -8 178 -4 11 7 -7 24 -40 35 -68
35 -118 1 -146 -34 -28 -64 -19 -73 21 -8 38 -1 120 14 160 9 24 10 24 21 5 7
-11 12 -58 12 -107z m-56 48 c-6 -32 -7 -77 -3 -100 l6 -41 -22 20 c-19 17
-22 27 -17 71 5 48 33 121 43 112 2 -3 -1 -31 -7 -62z"/>
<path d="M2423 2693 c3 -21 8 -47 12 -58 7 -16 6 -18 -6 -7 -15 14 -49 16 -49
4 0 -14 32 -39 65 -53 l30 -12 -30 -6 c-40 -8 -29 -26 15 -26 19 -1 45 -6 58
-13 12 -7 22 -9 22 -5 0 4 -13 15 -29 25 -35 19 -62 66 -63 111 -1 52 -8 77
-20 77 -7 0 -9 -13 -5 -37z m3 -90 c-7 -7 -26 7 -26 19 0 6 6 6 15 -2 9 -7 13
-15 11 -17z m31 -59 c-3 -3 -12 -4 -19 -1 -8 3 -5 6 6 6 11 1 17 -2 13 -5z"/>
<path d="M2480 2641 c-12 -24 -13 -51 -2 -51 9 0 32 44 32 60 0 17 -19 11 -30
-9z"/>
<path d="M4048 3213 c7 -3 16 -2 19 1 4 3 -2 6 -13 5 -11 0 -14 -3 -6 -6z"/>
<path d="M4024 3110 c0 -13 4 -16 10 -10 7 7 7 13 0 20 -6 6 -10 3 -10 -10z"/>
<path d="M4157 3034 c-8 -9 33 -84 47 -84 7 0 7 3 1 8 -16 12 -45 69 -38 76 3
3 4 6 1 6 -2 0 -7 -3 -11 -6z"/>
<path d="M4146 2868 c3 -5 10 -6 15 -3 13 9 11 12 -6 12 -8 0 -12 -4 -9 -9z"/>
<path d="M4170 2855 c0 -5 5 -17 10 -25 5 -8 10 -10 10 -5 0 6 -5 17 -10 25
-5 8 -10 11 -10 5z"/>
<path d="M4190 2801 c0 -6 4 -13 10 -16 6 -3 7 1 4 9 -7 18 -14 21 -14 7z"/>
<path d="M4260 2743 c0 -4 5 -15 10 -23 8 -13 10 -13 10 2 0 9 -4 20 -10 23
-5 3 -10 3 -10 -2z"/>
<path d="M4290 2660 c6 -11 13 -20 16 -20 2 0 0 9 -6 20 -6 11 -13 20 -16 20
-2 0 0 -9 6 -20z"/>
<path d="M4240 2571 c0 -10 19 -25 25 -20 1 2 -3 10 -11 17 -8 7 -14 8 -14 3z"/>
<path d="M4310 2500 c0 -5 5 -10 10 -10 6 0 10 5 10 10 0 6 -4 10 -10 10 -5 0
-10 -4 -10 -10z"/>
<path d="M4331 2404 c0 -11 3 -14 6 -6 3 7 2 16 -1 19 -3 4 -6 -2 -5 -13z"/>
<path d="M2098 2316 c-95 -26 -179 -107 -240 -234 -24 -52 -33 -84 -36 -144
l-5 -77 36 -36 c28 -28 43 -35 75 -35 60 0 87 14 153 77 l59 56 -15 -49 c-8
-27 -18 -58 -21 -69 -3 -12 -34 -36 -81 -60 -70 -37 -133 -92 -133 -116 0 -30
22 -49 56 -49 68 0 121 45 174 149 33 67 116 135 126 104 12 -38 22 -48 51
-51 24 -2 38 4 61 29 17 18 35 42 41 53 5 12 39 82 74 156 59 123 124 220 148
220 17 0 9 -56 -36 -228 -25 -96 -45 -182 -45 -193 0 -45 31 -14 70 69 65 138
130 243 189 302 50 50 55 53 59 32 2 -12 -19 -89 -47 -170 -77 -227 -78 -282
-5 -282 27 0 43 8 65 31 16 18 31 30 32 28 1 -2 7 -13 13 -24 19 -35 67 -31
111 8 l38 35 10 -31 c27 -83 126 -26 200 115 36 67 47 76 74 59 12 -8 9 -20
-17 -74 -18 -35 -32 -75 -32 -89 0 -73 91 -60 157 22 47 58 34 63 -18 8 -30
-32 -62 -58 -72 -58 -26 0 -22 50 10 114 30 61 26 82 -16 97 -27 9 -30 15 -28
46 3 49 -26 68 -54 34 -24 -29 -24 -47 1 -68 19 -17 19 -18 -12 -76 -37 -70
-95 -135 -123 -139 -32 -5 -30 41 5 126 31 73 32 103 5 92 -8 -3 -19 2 -26 11
-19 22 -91 12 -132 -20 -19 -14 -50 -57 -71 -96 -45 -86 -82 -131 -107 -131
-32 0 -23 70 30 229 60 179 65 204 51 230 -35 67 -149 -40 -245 -229 -14 -27
-27 -50 -29 -50 -3 0 3 28 13 63 10 34 24 92 31 130 11 59 10 70 -4 92 -9 14
-24 25 -33 25 -37 0 -105 -94 -180 -250 -85 -174 -115 -220 -145 -220 -18 0
-19 4 -13 37 4 21 18 64 31 95 29 69 30 88 6 88 -14 0 -27 -19 -47 -66 -32
-75 -65 -118 -105 -139 l-28 -15 24 78 c39 122 40 132 16 132 -13 0 -23 -10
-30 -29 -23 -66 -162 -181 -218 -181 -12 0 -34 10 -49 22 -26 20 -27 24 -23
98 2 63 9 88 40 151 46 93 96 152 162 189 56 33 106 38 130 14 23 -23 19 -83
-8 -131 -17 -29 -21 -45 -14 -49 15 -10 56 42 70 89 15 51 -8 102 -57 123 -40
16 -36 16 -97 0z m1010 -298 c19 -19 14 -48 -17 -97 -89 -138 -178 -147 -120
-12 21 50 87 121 112 121 7 0 18 -5 25 -12z m-1028 -275 c0 -18 -62 -113 -82
-127 -29 -20 -67 -20 -75 0 -9 23 27 65 87 102 55 33 70 38 70 25z"/>
<path d="M4342 2285 c0 -16 2 -22 5 -12 2 9 2 23 0 30 -3 6 -5 -1 -5 -18z"/>
<path d="M2349 2119 c-8 -16 -8 -24 0 -32 16 -16 45 3 49 32 5 29 -33 29 -49
0z"/>
<path d="M4275 1950 c3 -5 8 -10 11 -10 2 0 4 5 4 10 0 6 -5 10 -11 10 -5 0
-7 -4 -4 -10z"/>
<path d="M4291 1884 c0 -11 3 -14 6 -6 3 7 2 16 -1 19 -3 4 -6 -2 -5 -13z"/>
<path d="M1620 1687 c-32 -16 -40 -70 -14 -98 36 -40 104 -12 104 42 0 50 -46
78 -90 56z"/>
<path d="M3600 1692 c-50 -16 -65 -67 -29 -103 27 -27 67 -21 93 14 19 26 19
30 6 54 -16 28 -46 43 -70 35z"/>
<path d="M4150 1541 c-14 -27 -13 -34 3 -19 8 7 14 18 14 25 0 18 -5 16 -17
-6z"/>
<path d="M4140 1489 c0 -5 5 -7 10 -4 6 3 10 8 10 11 0 2 -4 4 -10 4 -5 0 -10
-5 -10 -11z"/>
<path d="M1513 1393 c-9 -3 -13 -24 -12 -61 1 -39 3 -49 8 -32 4 15 16 27 31
30 18 4 25 13 25 29 0 24 -28 42 -52 34z m37 -33 c0 -13 -7 -20 -20 -20 -13 0
-20 7 -20 20 0 13 7 20 20 20 13 0 20 -7 20 -20z"/>
<path d="M1615 1364 c-8 -21 -18 -49 -21 -63 -4 -25 -4 -25 5 -3 14 30 57 30
64 0 4 -12 9 -19 13 -15 7 7 -22 95 -37 111 -4 5 -15 -9 -24 -30z m35 -26 c0
-5 -7 -8 -15 -8 -15 0 -20 21 -8 33 7 7 23 -11 23 -25z"/>
<path d="M1722 1388 c-19 -19 -14 -37 13 -50 14 -6 25 -20 25 -31 0 -16 -5
-18 -27 -12 -21 5 -25 4 -17 -5 16 -16 44 -9 58 13 9 15 5 23 -23 46 -34 28
-31 48 5 34 12 -4 15 -3 10 5 -9 15 -29 15 -44 0z"/>
<path d="M2217 1393 c-7 -12 -2 -101 6 -109 4 -4 7 5 7 19 0 34 15 34 36 2 19
-30 31 -26 15 4 -9 15 -8 26 1 41 8 12 9 23 3 29 -14 14 -62 24 -68 14z m51
-32 c-5 -24 -38 -27 -38 -3 0 10 3 21 6 25 11 11 35 -5 32 -22z"/>
<path d="M2427 1394 c-3 -6 -15 -35 -26 -65 -16 -40 -17 -48 -5 -31 20 28 54
29 61 2 3 -11 10 -20 15 -20 10 0 4 23 -22 84 -9 22 -19 35 -23 30z m16 -44
c4 -15 0 -20 -13 -20 -13 0 -17 5 -13 20 3 11 9 20 13 20 4 0 10 -9 13 -20z"/>
<path d="M2581 1390 c-7 -4 -12 -16 -10 -26 1 -11 -1 -27 -6 -36 -13 -32 1
-47 42 -45 36 1 38 3 39 37 1 19 -1 27 -3 18 -5 -22 -17 -23 -32 -4 -8 10 -9
16 -1 21 14 9 13 32 -3 38 -8 3 -19 2 -26 -3z m20 -23 c-13 -13 -26 -3 -16 12
3 6 11 8 17 5 6 -4 6 -10 -1 -17z m9 -63 c0 -16 -26 -19 -35 -4 -4 6 -4 18 -1
27 5 12 9 13 21 3 8 -7 15 -19 15 -26z"/>
<path d="M2740 1341 c0 -34 4 -61 10 -61 6 0 10 11 10 25 0 32 13 32 35 -1 9
-14 19 -23 22 -20 3 3 0 13 -7 21 -10 12 -10 21 -1 42 14 31 7 40 -37 49 l-32
7 0 -62z m58 20 c-2 -9 -11 -17 -21 -19 -12 -3 -17 3 -17 21 0 20 4 24 20 20
12 -3 20 -12 18 -22z"/>
<path d="M2967 1393 c-11 -10 -8 -113 3 -113 6 0 10 11 10 24 0 18 6 25 23 28
34 5 36 45 2 58 -31 12 -30 12 -38 3z m46 -19 c9 -9 -4 -34 -18 -34 -14 0 -27
25 -18 34 4 3 12 6 18 6 6 0 14 -3 18 -6z"/>
<path d="M3080 1380 c-51 -51 6 -124 71 -90 13 7 19 21 19 45 0 60 -50 85 -90
45z m77 -26 c8 -23 -14 -64 -35 -64 -26 0 -42 20 -42 52 0 47 60 57 77 12z"/>
<path d="M3223 1393 c-22 -8 -14 -40 14 -61 32 -24 23 -47 -16 -37 -19 5 -23
4 -15 -5 21 -21 59 -8 62 21 2 19 -3 28 -23 37 -32 15 -27 38 6 34 19 -2 21 0
9 8 -16 11 -19 11 -37 3z"/>
<path d="M3517 1393 c-11 -10 -8 -113 3 -113 6 0 10 11 10 25 0 14 4 25 8 25
5 0 15 -11 22 -25 7 -14 18 -25 23 -25 5 0 2 11 -7 25 -14 21 -14 28 -4 45 11
18 10 23 -6 36 -21 15 -39 18 -49 7z m46 -20 c8 -7 -11 -33 -24 -33 -5 0 -9 9
-9 20 0 19 20 27 33 13z"/>
<path d="M4055 1390 c-3 -6 1 -7 9 -4 18 7 21 14 7 14 -6 0 -13 -4 -16 -10z"/>
<path d="M1813 1383 c13 -3 17 -15 17 -54 0 -27 5 -49 10 -49 6 0 10 22 10 49
0 39 4 51 18 54 9 3 -3 5 -28 5 -25 0 -37 -2 -27 -5z"/>
<path d="M1920 1335 l0 -55 33 1 c30 2 30 2 5 6 -34 5 -41 43 -8 43 11 0 20 5
20 10 0 6 -9 10 -20 10 -30 0 -24 28 8 33 25 4 25 4 -5 6 l-33 1 0 -55z"/>
<path d="M2022 1338 l-2 -58 38 1 c36 1 36 2 7 8 -27 6 -31 10 -36 56 l-6 50
-1 -57z"/>
<path d="M2110 1335 l0 -55 38 1 c30 2 32 3 10 6 -34 5 -41 43 -8 43 11 0 20
5 20 10 0 6 -9 10 -20 10 -30 0 -24 28 8 33 22 3 20 4 -10 6 l-38 1 0 -55z"/>
<path d="M2330 1335 c0 -30 5 -55 10 -55 6 0 10 25 10 55 0 30 -4 55 -10 55
-5 0 -10 -25 -10 -55z"/>
<path d="M2860 1335 l0 -55 33 1 c31 2 31 2 4 6 -22 4 -28 9 -25 26 2 15 9 21
21 19 9 -2 17 2 17 8 0 5 -9 10 -20 10 -30 0 -24 28 8 33 25 4 25 4 -5 6 l-33
1 0 -55z"/>
<path d="M3312 1383 c13 -3 18 -18 21 -56 l3 -52 2 52 c2 45 5 52 25 56 12 2
2 4 -23 4 -25 1 -37 -1 -28 -4z"/>
<path d="M3410 1335 l0 -55 33 1 c23 1 26 3 10 6 -27 5 -30 31 -5 49 16 13 16
13 0 14 -26 0 -22 28 5 33 16 3 13 5 -10 6 l-33 1 0 -55z"/>
<path d="M3620 1335 c0 -30 5 -55 10 -55 6 0 10 25 10 55 0 30 -4 55 -10 55
-5 0 -10 -25 -10 -55z"/>
<path d="M3692 1338 c-22 -52 -24 -78 -2 -39 14 27 50 27 57 1 3 -11 9 -17 14
-14 10 6 -24 97 -38 101 -5 2 -19 -20 -31 -49z m41 12 c4 -15 0 -20 -13 -20
-13 0 -17 5 -13 20 3 11 9 20 13 20 4 0 10 -9 13 -20z"/>
<path d="M4053 1355 c-10 -10 -9 -14 3 -19 8 -3 12 -2 9 3 -3 5 3 11 12 13 15
3 15 5 3 10 -8 3 -21 0 -27 -7z"/>
<path d="M3984 1262 c2 -21 21 -19 23 3 l3 20 -9 -20 c-6 -16 -9 -17 -13 -5
-3 8 -4 9 -4 2z"/>
<path d="M3950 1246 c0 -2 7 -7 16 -10 8 -3 12 -2 9 4 -6 10 -25 14 -25 6z"/>
</g>
</svg>
